<svg width="999" height="174" viewBox="0 0 999 174" fill="none" xmlns="http://www.w3.org/2000/svg">
<path d="M989 156.4V147L993.9 135.6H992L990.7 134.4L992 132.1L988.4 132.5C987.3 131.7 986.1 130.9 984.8 130.2L986.1 127.7L981.9 128.7C979.9 127.7 977.9 126.7 975.9 126L976.5 123.4L972.9 124.9C969.2 123.6 965.4 122.6 961.7 121.9V118.9L958.4 121.2C953.1 120.2 948.1 119.5 943.9 119.2V117H942.7L941.5 119C937 118.6 933.8 118.5 932.5 118.5H932L923 118.9L921.8 116.9H920.6V119.1C916.4 119.5 911.4 120.1 906.1 121.1L903 119V122C899.2 122.7 895.4 123.8 891.7 125L888.1 123.5L888.8 126.1C886.722 126.859 884.686 127.727 882.7 128.7L878.5 127.7L879.8 130.3L876.2 132.6L872.6 132.2L873.9 134.5L872.6 135.7H870.8L875.8 147.1L872.9 167.9L871.5 147.5L867.3 137.6H861.8V105.6H865.8V92.6H861.8V79.3V79C861.8 77 858.6 76.9 858 75.6V74.4C858.3 74.4 858.6 74.4 858.8 74.2C859.5 73.9 859.8 73.3 859.4 72.8C859.6 73.2 859.4 73.6 858.9 73.8C858.4 74.1 857.6 74 857.2 73.6C856.9 73.2 857 72.7 857.6 72.4C858.1 72.2 858.7 72.3 859.1 72.5C858.6 72.2 857.7 72.1 857 72.4C856.3 72.7 856 73.4 856.6 73.9C856.8 74.2 857.1 74.3 857.5 74.4V75.6C856.8 76.8 853.9 77.1 853.9 79V92.8H849.4V105.6H853.9V137.6H838.9V110.8H843V98H839V84.6V84.3C839 82.3 835.7 82.1 835.2 80.9V79.7C835.4 79.7 835.7 79.7 835.9 79.5C836.6 79.2 836.9 78.5 836.5 78.1C836.7 78.4 836.5 78.9 836.1 79.1C835.5 79.4 834.8 79.3 834.4 78.9C834 78.5 834.2 78 834.7 77.7C835.2 77.5 835.9 77.5 836.3 77.8C835.7 77.4 834.9 77.3 834.2 77.7C833.5 78 833.2 78.7 833.7 79.2C834 79.5 834.3 79.6 834.7 79.6V81C834 82.2 831 82.5 831 84.4V98H826.6V111H831V134.7H817.4C816.5 122 802.4 118.1 802.4 118.1C802.4 118.1 801.2 117.7 800.9 117C801.8 116.7 802.3 116.2 802.3 115.5C802.3 114.9 801.8 114.3 800.9 114.1V109.6C801.3 109.4 801.5 109.1 801.5 108.8C801.5 108.5 801.3 108.2 800.9 108V106.7C802.4 106.4 803.5 105.5 803.5 104.4C803.5 103.1 802.1 102.1 800.3 102C801.7 102.1 802.8 103 802.8 104C802.8 105 801.5 105.8 800 105.8C798.4 105.8 797.2 104.9 797.2 103.9C797.2 102.9 798.2 102.1 799.7 102C797.9 102.1 796.5 103.1 796.5 104.4C796.5 105.5 797.6 106.4 799.1 106.7V107.9C798.7 108.1 798.5 108.4 798.5 108.9C798.5 109.2 798.8 109.5 799.1 109.7V114.1C798.3 114.3 797.7 114.9 797.7 115.5C797.7 116.2 798.3 116.7 799.1 117C798.7 117.7 797.6 118 797.6 118C797.6 118 783.4 122 782.6 134.7H769.6V111H773.7V98H769.7V84.6V84.4C769.7 82.4 766.4 82.2 765.9 80.9V79.7L766.7 79.6C767.3 79.3 767.6 78.6 767.2 78.2C767.4 78.5 767.3 78.9 766.8 79.2C766.2 79.4 765.5 79.3 765.1 78.9C764.7 78.5 764.9 78.1 765.4 77.8C765.9 77.5 766.6 77.6 767 77.8C766.4 77.5 765.6 77.4 764.9 77.8C764.2 78.1 763.9 78.8 764.4 79.3L765.4 79.7V80.9C764.7 82.1 761.7 82.4 761.7 84.4V98H757.3V110.8H761.7V137.7H745.7V105.6H749.7V92.9H745.7V79.5V79.2C745.7 77.2 742.5 77 741.9 75.8V74.6C742.2 74.6 742.5 74.6 742.7 74.4C743.3 74.1 743.7 73.4 743.3 73C743.5 73.3 743.3 73.7 742.8 74C742.3 74.2 741.5 74.1 741.1 73.7C740.8 73.4 740.9 72.9 741.5 72.6C742 72.3 742.6 72.4 743 72.6C742.5 72.3 741.6 72.2 740.9 72.6C740.2 72.9 739.9 73.6 740.5 74.1C740.7 74.3 741 74.5 741.4 74.5V75.8C740.7 76.9 737.8 77.2 737.8 79.2V92.9H733.3V105.7H737.8V137.8H720.8L718.2 167.8L716.6 97.1H717.4V96.7L715.6 96.1L715.5 96V86H711.1V88.7L711 88.5L696.4 82.3V79.5L693.7 77.5H691.7V82.4L669 91.7V92.7L670.6 91.9V95.9L669 96.6V97.1L667 168L664.2 74.7V69.6H662.4V72.6H659.8V69.6H658.3V72.6H655V69.6H653.3V72.6H652.6V64.8H616.6V72.7H615.4V69.6H613.6V72.6H610.3V69.6H608.5V72.6H605.3V69.6H603.2V74.7L600.4 168.7L598 54.5V26.8H577V28.4H573.5V26.8H558.5V27.5H533.5V36.4H535.3L532 168.6L529.2 55.6H520.4V52.3H525.7V47.3H524.4V45.4C525.1 45.4 525.7 44.8 525.7 44C525.7 43.2 525.1 42.6 524.3 42.6C523.7 42.6 523.2 43 523 43.6H520.4V41.7H525.7V40.3H524.4V39.9H525C526.2 39.9 527 39.2 527 38.1C527 37.1 526.1 36.2 525 36.2C523.9 36.2 523 37 523 38.1V38.3H520.5V36.6H517.6V2.1H515.5V0H511.6V2H509.4V36.6H505.8V38.3H503.5C503.304 38.0699 503.058 37.8874 502.78 37.7661C502.503 37.6449 502.202 37.5881 501.9 37.6C500.9 37.6 500.1 38.2 500.1 39C500.1 39.5 500.5 40 501 40.2H500.8V41.7H505.8V43.6H503.1C502.9 42.5 501.9 41.6 500.8 41.6C499.5 41.6 498.4 42.6 498.4 43.9C498.4 45.2 499.5 46.2 500.8 46.2C501.5 46.2 502.1 45.9 502.5 45.4V47.2H500.8V52.2H505.8V55.5H469.8L466.8 167.7L464.5 90.2H449.5V86.6H440.5V80.9L435.3 76.2L432.6 59.8L431.4 58.6L431.1 52.3H430.3L429.9 58.7L428.5 60L425.7 76.2L421 81V86.7H411.5V90.3H398.3L396.1 167.8L393.9 118.6H394.5V115H394.7V114.6H394.5V112.1H392.5V113L391.5 111.8L390 113.6H384.3L383.1 111.8L381.8 113.6H371V112.9L371.5 112.3H371V111.9L371.5 111.2H371V108.2H367.8V105.8H368.4L367.2 103.8V103.3H367.5V103.1H367.2V102.7H366.8V103.1H366.6V103.3H366.8V103.8L365.4 105.8H366V108.2H362.5V104.7H363V104H361.8V96.2H362.5V95.6H361.8V92.7H362.5V92.3H362V90H362.5V87.4H362.7V87H362.5L361.4 84.8V84.4H361.6H361.4V84.2H361.1V84.3H360.9V84.4H361.1V84.7L359.9 87H359.7V87.4H359.9V87.8H358.9V87.2H357.3V87.8H356.5V87.2H355V87.8H354.3V87.2H352.7V87.8H351.7V87.2H350.4V87.8H349.6V87.2H348.2V87.8H347.4V87.2H345.7V87.8H344.7V87.4H344.9V87H344.7L343.4 84.7V84.4H343.7H343.4V84.2H343.2V84.3H343V84.4H343.2V84.8L342.1 87H341.9V87.4H342.1V90H342.6V92.2H342.1V92.7H342.8V95.6H342.1V96.2H342.8V103.9H341.6V104.6H342.1V108.2H338.7V105.7H339.2L337.8 103.7V103.3H338.1V103H337.8V102.7H337.4V103H337.2V103.3H337.4V103.8L336.2 105.8H336.8V108.2H333.7V111.2H333.2L333.7 111.8V112.2H333.2L333.7 112.8V113.5H322.9L321.5 111.8L320.3 113.5H314.7L313.2 111.8L312.2 112.9V112.1H310.2V114.6H310V115H310.2V118.4H310.8V119.5H311L310.8 121.2V123H318.5C319.6 122.9 332.9 119 335.7 117.8L304.9 166.8L328.3 122.7C328.3 122.7 321.3 125.9 318.6 125.9H307.4C306.8 125.5 306.4 125.2 305.8 125L306.3 122.5H304.6L303.6 123L303.5 123.8C298.363 121.583 292.997 119.939 287.5 118.9C279.5 117.3 270.1 116.4 260.2 116.4C245.544 116.22 230.976 118.693 217.2 123.7L217.1 123L216.1 122.5H214.4L214.8 124.9L212.8 125.9C208.1 126 204.2 126.1 202 126C199.3 126 192.3 122.8 192.3 122.8L211.1 155.8H188.1L93.8 105.8C94.2 102.4 95 99.1 96.2 95.5H92C92 95.5 90.7 96.1 90.7 96.5L90.2 100.3L87.3 102.3L85.2 101.1L84.6 96.4C84.6 96.1 83.3 95.4 83.3 95.4H79.1C80.4 99.2 81.1 102.7 81.6 106.2L10 155.7H0V161.4H66.6C64.8045 165.574 63.071 169.775 61.4 174H69.6L73.8 161.4H101.5L105.7 174H113.9L108.7 161.4H211.4L185 174H999V156.3H989V156.4ZM91.4 129C92.2 132.4 93.4 136.3 94.9 141.1L89.2 130.5L90.2 127.5L91.4 129ZM88.3 115L87.6 114.5L88.9 113.2L89.3 113.5V114.9H88.3V115ZM89 118L88.8 118.1L88.6 117.9H89V118ZM88.8 112.8L87.9 112.2H89.2V112.4L88.8 112.8V112.8ZM89.3 112.8V113.1L89.2 113V112.9L89.3 112.8ZM88.6 113L87.4 114.2L86.1 113.2L87.3 112.2L88.6 113ZM86.1 112.8V112.2H86.8L86.1 112.8ZM86 109.4V108.8L87 109.4H86ZM86.1 113.7L87.1 114.5L86.6 115H86.1V113.7ZM87.4 114.7L87.8 115H87L87.3 114.7H87.4ZM89.4 117.9C89.6 118.2 89.6 118.5 89.6 118.8L89.1 118.4L89.5 117.9H89.4ZM89.4 108.2V108.1L89.6 107.9L89.5 108.2H89.4ZM89.4 108.5V109.4H87.6L89 108.3L89.4 108.5V108.5ZM87.3 109.2L85.9 108.4L87.3 107.3L88.7 108.1L87.3 109.2ZM86.5 117.9L86.1 118.3L85.9 118.1V117.9H86.5V117.9ZM87 117.9H88L88.6 118.4L87.6 119.8L86.4 118.6L87 117.9V117.9ZM87.6 120.3L87.8 120.7H87.3L87.6 120.3ZM87.8 123.4H89.6L89 125L88 123.6L87.8 123.4ZM88.7 125.2L87.7 127.2L86.6 125.2L87.6 123.7L88.7 125.2ZM89.2 120.7H88.3L87.8 120L88.9 118.7L89.6 119.3L89.7 119.9L89.2 120.7V120.7ZM89.8 120.5V120.7H89.6L89.8 120.5ZM89.5 103.3L89.9 103V103.5L89.5 103.3ZM89.8 103.8H88.8L89.2 103.5L89.8 103.8ZM89.6 106.5V107.5L89 107.8L87.6 107L88.3 106.5H89.6ZM87.3 106.9L86.8 106.6H87.6L87.3 106.9ZM87 107.1L85.8 107.9L85.7 106.5H86.1L87 107.1V107.1ZM86 118.6H85.8H85.9H86ZM86.1 118.8L87.3 120L86.8 120.7H85.8L85.6 120.4L85.7 119.3L86.1 118.8V118.8ZM87.3 123.4L86.3 124.9L85.6 123.4H87.3ZM87.3 127.7L86.1 130L85.3 127.2L86.3 125.7L87.3 127.7V127.7ZM87.6 128.1L88.8 130.3L87.4 134.3L86.4 130.6L87.6 128.1ZM87.8 127.7L89 125.6L90 127L89 129.8L87.8 127.7V127.7ZM90.8 126.1L91.3 127.9L90.6 126.9L90.8 126.1ZM90.6 125.4L90.2 126.6L89.2 125.2L90.1 123.5H90.3L90.6 125.4ZM90.3 100.6L90.1 102.6L89.2 103.2L87.7 102.4L90.3 100.6V100.6ZM87.4 102.6L88.9 103.4L88.3 103.8H86L85.7 103.7L87.3 102.6H87.4ZM87.1 102.4L85.5 103.5L85.3 101.5L87.1 102.5V102.4ZM85.1 123.4L86.1 125.2L85.2 126.6L84.8 125.2L85.1 123.4V123.4ZM84.6 126.1L84.8 127.1L84.1 128.3L84.6 126.1V126.1ZM83.8 129.4L85 127.6L85.8 130.6L80.6 140.4L83.8 129.4V129.4ZM10.6 155.6L81.7 106.5L81.9 108.5L17.1 155.6H10.6ZM17.6 155.6L82 109V111L24 155.7H17.6V155.6ZM24.6 155.6L82 111.5V113.7L31 155.7H24.6V155.6ZM31.6 155.6L82 114.2C82 115 82 115.9 81.8 116.7L38 155.7H31.6V155.6ZM38.6 155.6L81.8 117.1L81.5 120.1L45 155.6H38.5H38.6ZM45.6 155.6L81.3 120.6L80.6 124.3L52 155.7H45.6V155.6ZM52.4 155.6L80.4 125C80.1 126.8 79.6 128.6 79 130.4L58.9 155.6H52.4V155.6ZM69.1 155.6H66.2L74 144L69 155.6H69.1ZM65.7 155.6H59.3L78.6 131.4C77.5 134.9 76.2 138.4 74.6 142.2L65.7 155.6V155.6ZM75.7 155.6L80 142.4L86 131L87 134.8L79.3 155.6H75.7V155.6ZM79.7 155.6L87.3 135.6L93 155.6H79.8H79.7ZM93.5 155.6L87.5 134.8L89 130.8L95.5 143.1L99.5 155.6H93.5ZM106.3 155.6C103.9 149.9 101.6 144.7 99.8 139.9L111.5 155.6H106.3ZM112 155.6L99.3 138.6C98 135.4 97 132.3 96.1 129.4L121 155.6H112V155.6ZM121.4 155.6L95.8 128.6L94.6 123.8L130.2 155.6H121.4ZM130.8 155.6L94.5 123.2L93.9 119.8L139.7 155.5H130.8V155.6ZM140.3 155.6L93.8 119.3L93.5 116.5L149.2 155.6H140.2H140.3ZM149.8 155.6L93.5 116.1L93.3 113.6L158.7 155.6H149.7H149.8ZM159.3 155.6L93.4 113.1V111L168.3 155.7H159.3V155.8V155.6ZM168.9 155.6L93.4 110.5L93.5 108.3L177.9 155.6H168.9ZM178.5 155.6L93.5 108L93.8 106L187.5 155.6H178.5ZM297.8 122.6L293.3 123.8H292.9L289.7 120.3C292.7 121 295.3 121.7 297.7 122.6H297.8ZM298 123.1L295.7 124.1L294.5 124L298 123V123.1ZM289.6 123.2L286.6 122.8L286.7 122.1L288.7 120.5L289.6 123.2ZM287.4 119.8L281.6 122.4H281.5L278.5 118.3L287.5 119.8H287.4ZM280.6 122.3H280L279.2 120.3L280.6 122.3V122.3ZM279.1 122.2L274.2 121.8L277.4 118.3L279.1 122.2ZM273.3 121.8L271.4 121.7L275.7 119.1L273.3 121.8V121.8ZM276.4 118L270.4 121.6H270.3L266.4 117.3C269.9 117.4 273.2 117.6 276.4 118ZM269.4 121.6H268.2L266.8 118.7L269.4 121.6V121.6ZM267.4 121.6L263.4 121.4L265.5 117.8L267.4 121.5V121.6ZM262.4 121.4H260.2L264.7 117.8L262.5 121.4H262.4ZM260.1 117.1H264.4L259.2 121.4H258.6L254.7 117.2H260.1V117.1ZM257.7 121.4H257.5L257 120.7L257.7 121.4ZM256.7 121.4L252.5 121.6L254.2 117.8L256.7 121.5V121.4ZM251.7 121.6L248.3 121.7L253.6 117.5L251.6 121.5L251.7 121.6ZM252.8 117.3L247.3 121.8H247.2L243 118.1C246.1 117.7 249.4 117.5 252.8 117.3V117.3ZM246.2 121.8H246L245 120.8L246.2 121.8ZM245.2 121.8L240.9 122.2L241.9 118.6L245.2 121.9V121.8ZM240 122.2L236.4 122.5L241 118.9L240 122.2ZM231 121.1V120.6L234 122.8L230.3 123.3L230.9 121.1H231ZM219.9 125.1L217.6 125.6L217.4 124.9L219.7 123.6L220.6 123.2L219.9 125.1V125.1ZM220.7 124.9C220.7 124.6 220.9 124.4 221 124.1L221.3 123.3L222.9 124.4L221.2 124.8L220.7 124.9V124.9ZM221.5 125.7L224.1 125.2L224.5 125.4L224.8 125.7H221.5ZM221.8 122.8C224.429 121.879 227.098 121.078 229.8 120.4L225.6 123.9L224.8 124.1L221.8 122.8ZM228.8 125.6H225.8L224.9 125L229.2 124.3C229.2 124.8 229 125.2 228.8 125.6ZM226.8 123.8L230.2 121L229.6 123.4L226.8 123.8V123.8ZM229.7 125.6L230.1 124.2L234.1 123.7L234.3 125.5H229.7V125.6ZM235.6 122.1H234L231.4 120.1L233.1 119.7C235.6 119.2 238.1 118.7 240.8 118.4L235.8 122.3L235.5 122.1H235.6ZM236.6 125.5L236.5 124.9L237.2 125.5H236.6ZM239 125.5H238.2L236.2 123.9V123.5L239.8 123.2L239 125.4V125.5ZM239.9 125.5L240.6 123.1L246 122.7L248.5 125.3L239.9 125.4V125.5ZM249.5 125.3L246.9 122.7L251.2 122.5L250 125.3H249.5V125.3ZM253.7 125.2H250.7L252 122.5H253.7V125.2ZM255.8 125.2L255.5 122.8L255.3 122.4H257.3L259.1 125.1H255.8V125.2ZM259.8 125.1L258.1 122.4H261.9L260.2 125.1H259.9H259.8ZM265.1 122.9L264.8 125.2H261.1L262.7 122.4H265.3L265.1 122.9V122.9ZM266.9 125.2V122.4L267.8 122.5L269.2 125.2H266.9V125.2ZM269.9 125.2L268.6 122.5L272.6 122.6L270.1 125.2H269.9V125.2ZM271 125.2L273.4 122.7L279.6 123.1L280.6 125.4L271 125.3V125.2ZM281.4 125.4L280.4 123.2L284 123.5L281.4 125.5V125.4ZM283.9 125.4H282.4L284.2 124.1L283.9 125.5V125.4ZM285.1 122.1L284.6 122.6H284.4L282.9 122.5L288.4 120H288.5L285.8 122H285.1V122.1ZM286.3 125.5L286.5 123.8L289.9 124.2L290.3 125.6H286.3V125.5ZM289.8 121.3L291.8 123.6L290.4 123.4L289.8 121.4V121.3ZM291 125.6L290.6 124.3L294.3 124.9L292.9 125.6H290.9H291ZM294.1 125.6L295.3 125C296.473 125.199 297.64 125.433 298.8 125.7H294L294.1 125.6ZM296.7 124.4L299.2 123.1L301.3 125.3L296.7 124.3V124.4ZM303 125.7H302.6L300.7 123.7L303.2 124.7L303 125.7V125.7Z" fill="#F3B304"/>
</svg>
